<svg width="27" height="28" viewBox="0 0 27 28" fill="none" xmlns="http://www.w3.org/2000/svg">
<path d="M9.21585 0.844407C6.44556 1.80545 4.05647 3.62953 2.3995 6.04873C0.742518 8.46793 -0.0950042 11.3547 0.00994619 14.2851C0.114897 17.2155 1.15679 20.035 2.98258 22.3294C4.80838 24.6239 7.32184 26.2724 10.1538 27.0328C12.4497 27.6252 14.8551 27.6512 17.1633 27.1086C19.2543 26.6389 21.1875 25.6343 22.7736 24.193C24.4243 22.6471 25.6225 20.6806 26.2394 18.5048C26.9098 16.1387 27.0291 13.6504 26.5881 11.2309H13.6954V16.5791H21.162C21.0128 17.4321 20.693 18.2462 20.2218 18.9727C19.7506 19.6993 19.1377 20.3232 18.4197 20.8074C17.5079 21.4105 16.4801 21.8163 15.4023 21.9987C14.3213 22.1997 13.2125 22.1997 12.1314 21.9987C11.0358 21.7722 9.99933 21.32 9.08805 20.6709C7.62408 19.6346 6.52483 18.1624 5.94718 16.4643C5.35976 14.7344 5.35976 12.859 5.94718 11.1291C6.35837 9.91658 7.03811 8.81255 7.93568 7.89946C8.96283 6.83534 10.2632 6.07471 11.6942 5.70101C13.1252 5.32731 14.6315 5.35498 16.0478 5.78099C17.1542 6.12062 18.1659 6.71402 19.0024 7.51389C19.8443 6.67632 20.6847 5.83659 21.5237 4.99469C21.957 4.54197 22.4292 4.11091 22.8559 3.64737C21.5791 2.4592 20.0804 1.53466 18.4457 0.92672C15.4688 -0.154196 12.2115 -0.183244 9.21585 0.844407Z" fill="white"/>
<path d="M9.21579 0.844361C12.2112 -0.183989 15.4685 -0.155705 18.4456 0.924507C20.0806 1.53657 21.5786 2.46557 22.8537 3.65815C22.4204 4.1217 21.9634 4.55492 21.5215 5.00548C20.681 5.84449 19.8413 6.68061 19.0023 7.51384C18.1659 6.71397 17.1541 6.12058 16.0477 5.78095C14.6319 5.35344 13.1257 5.32417 11.6943 5.69634C10.2629 6.06851 8.96173 6.82775 7.93345 7.89075C7.03588 8.80384 6.35614 9.90787 5.94495 11.1204L1.45459 7.64381C3.06187 4.4565 5.84477 2.01845 9.21579 0.844361Z" fill="#E33629"/>
<path d="M0.263282 11.0881C0.504634 9.89197 0.905327 8.7336 1.45465 7.64398L5.94501 11.1293C5.35759 12.8591 5.35759 14.7345 5.94501 16.4644C4.44894 17.6197 2.95216 18.7807 1.45465 19.9475C0.0794887 17.2102 -0.339911 14.0914 0.263282 11.0881Z" fill="#F8BD00"/>
<path d="M13.6954 11.2288H26.5882C27.0292 13.6482 26.9099 16.1365 26.2394 18.5026C25.6226 20.6785 24.4244 22.645 22.7736 24.1909C21.3245 23.0602 19.8689 21.9381 18.4197 20.8074C19.1382 20.3228 19.7514 19.6981 20.2226 18.9708C20.6938 18.2435 21.0133 17.4286 21.162 16.5748H13.6954C13.6933 14.7943 13.6954 13.0115 13.6954 11.2288Z" fill="#587DBD"/>
<path d="M1.45245 19.9474C2.94996 18.7921 4.44675 17.631 5.94281 16.4642C6.52162 18.1629 7.62243 19.6352 9.08802 20.6708C10.0021 21.3169 11.0408 21.7654 12.1379 21.9878C13.2189 22.1888 14.3277 22.1888 15.4087 21.9878C16.4866 21.8054 17.5144 21.3996 18.4261 20.7965C19.8753 21.9272 21.3309 23.0492 22.78 24.1799C21.1942 25.622 19.261 26.6274 17.1698 27.0977C14.8616 27.6403 12.4562 27.6143 10.1602 27.0219C8.34439 26.5371 6.64826 25.6824 5.17817 24.5114C3.62217 23.276 2.3513 21.7192 1.45245 19.9474Z" fill="#319F43"/>
</svg>
