<svg width="27" height="27" viewBox="0 0 27 27" fill="none" xmlns="http://www.w3.org/2000/svg">
<path d="M26.8543 13.5041C26.8543 6.08855 20.8427 0.0769653 13.4272 0.0769653C6.01159 0.0769653 0 6.08855 0 13.5041C0 20.2059 4.91014 25.7609 11.3292 26.7682V17.3854H7.91992V13.5041H11.3292V10.5459C11.3292 7.18077 13.3338 5.32195 16.4009 5.32195C17.8699 5.32195 19.4064 5.5842 19.4064 5.5842V8.88853H17.7134C16.0453 8.88853 15.5251 9.92358 15.5251 10.9855V13.5041H19.2491L18.6538 17.3854H15.5251V26.7682C21.9442 25.7609 26.8543 20.2061 26.8543 13.5041Z" fill="#1877F2"/>
<path d="M18.6538 17.3854L19.2491 13.5041H15.5251V10.9854C15.5251 9.92343 16.0453 8.88849 17.7134 8.88849H19.4064V5.58415C19.4064 5.58415 17.8699 5.3219 16.4007 5.3219C13.3338 5.3219 11.3292 7.18072 11.3292 10.5459V13.5041H7.91992V17.3854H11.3292V26.7681C12.0232 26.8769 12.7246 26.9314 13.4272 26.9312C14.1297 26.9314 14.8311 26.8769 15.5251 26.7681V17.3854H18.6538Z" fill="white"/>
</svg>
