<svg width="28" height="32" viewBox="0 0 28 32" fill="none" xmlns="http://www.w3.org/2000/svg">
<path d="M22.8516 30.5954C21.1164 32.2774 19.2219 32.0118 17.3982 31.2151C15.4683 30.4006 13.6978 30.3652 11.6616 31.2151C9.11199 32.3128 7.76636 31.9941 6.24368 30.5954C-2.39668 21.6894 -1.12188 8.1269 8.68706 7.63114C11.0773 7.75508 12.7417 8.94135 14.1404 9.04759C16.2297 8.62265 18.2304 7.40096 20.4613 7.56031C23.1349 7.77278 25.1533 8.83512 26.4812 10.7473C20.9571 14.0583 22.2673 21.3353 27.3311 23.3715C26.3219 26.0273 25.0117 28.6655 22.8339 30.6131L22.8516 30.5954ZM13.9633 7.5249C13.6978 3.57654 16.9025 0.318702 20.5853 0C21.0987 4.56806 16.4421 7.96754 13.9633 7.5249Z" fill="black"/>
</svg>
